<svg xmlns="http://www.w3.org/2000/svg" width="1365.3333" height="1365.3333" viewBox="0 0 1365.3333 1365.3333">
  <defs>
    <clipPath id="a" clipPathUnits="userSpaceOnUse">
      <path d="M-700.04782 574.29731H323.95221v-678.65602H-700.04782Z"/>
    </clipPath>
    <clipPath id="b" clipPathUnits="userSpaceOnUse">
      <path d="M-1013.2228 285.3832H10.77723v-678.65601H-1013.2228Z"/>
    </clipPath>
  </defs>
  <g transform="translate(0 230.229305)">
    <path d="M0 0c0-57.636-83.818-104.359-187.212-104.359-103.395 0-187.213 46.723-187.213 104.359s83.818 104.359 187.213 104.359C-83.818 104.359 0 57.636 0 0" clip-path="url(#a)" style="fill:#a75d24;fill-opacity:1;fill-rule:nonzero;stroke:none" transform="matrix(1.33333 0 0 -1.33333 933.39707 765.72973)"/>
    <path d="M0 0c0-51.215-74.481-92.733-166.357-92.733-91.877 0-166.357 41.518-166.357 92.733s74.48 92.733 166.357 92.733C-74.481 92.733 0 51.215 0 0" style="fill:#63402d;fill-opacity:1;fill-rule:nonzero;stroke:none" transform="matrix(1.33333 0 0 -1.33333 905.58987 750.22907)"/>
    <path d="M0 0c-15.854-26.627-60.779-44.151-108.435-30.647-3.103.866-6.216 1.876-9.34 3.031-51.017 18.771-79.128 81.272-79.128 81.272-15.318-15.927-32.534-19.463-32.534-19.463l-21.008.011-501.386.34-22.761.02c-18.36 4.144-31.173 18.855-31.173 18.855-23.916-48.265-51.306-75.881-89.684-84.788-10.195-2.371-21.184-3.422-33.09-3.175-56.646 1.155-90.355 33.008-84.077 78.778 6.278 45.759 42.482 77.004 106.209 108.229 63.717 31.214 133.33 46.223 133.33 46.223s17.009 25.596 50.687 37.08c33.668 11.484 56.151 0 56.151 0 179.43 112.291 331.418-1.124 331.418-1.124 65.738 23.854 109.745-37.43 109.745-37.43 73.314-15.597 180.657-66.531 210.912-102.24C16.081 59.253 16.257 27.297 0 0" clip-path="url(#b)" style="fill:#643f2a;fill-opacity:1;fill-rule:nonzero;stroke:none" transform="matrix(1.33333 0 0 -1.33333 1350.9637 380.51093)"/>
    <path d="M0 0c-10.144-54.037 8.948-92.117 8.948-92.117l-1.732-10.092-22.761.021c-18.36 4.144-31.173 18.854-31.173 18.854-23.916-48.265-51.306-75.881-89.684-84.788 16.143 7.319 36.636 20.061 49.986 40.997C-61.49-88.055-44.182-38.636-7.773 20.833c36.41 59.46 71.572 60.46 71.572 60.46S10.154 54.048 0 0" style="fill:#111211;fill-opacity:1;fill-rule:nonzero;stroke:none" transform="matrix(1.33333 0 0 -1.33333 338.9012 198.17387)"/>
    <path d="M0 0s-32.684-28.615-41.748-83.173Z" style="fill:#111211;fill-opacity:1;fill-rule:nonzero;stroke:none" transform="matrix(1.33333 0 0 -1.33333 306.3004 127.88213)"/>
    <path d="M0 0c-17.678-25.82-49.421-34.83-70.9-20.124-21.478 14.706-24.559 47.558-6.881 73.378 17.679 25.82 49.422 34.83 70.9 20.124C14.598 58.673 17.678 25.82 0 0" style="fill:#111211;fill-opacity:1;fill-rule:nonzero;stroke:none" transform="matrix(1.33333 0 0 -1.33333 496.77293 229.64333)"/>
    <path d="M0 0c0-4.71-6.881-8.529-15.368-8.529-8.488 0-15.368 3.819-15.368 8.529s6.88 8.529 15.368 8.529C-6.881 8.529 0 4.71 0 0" style="fill:#fdfdfd;fill-opacity:1;fill-rule:nonzero;stroke:none" transform="matrix(1.33333 0 0 -1.33333 479.4224 156.8524)"/>
    <path d="M0 0c1.434-9.314-9.056-18.659-23.43-20.872-14.375-2.213-27.19 3.544-28.624 12.859-1.433 9.314 9.057 18.658 23.431 20.871S-1.434 9.314 0 0" style="fill:#d9843f;fill-opacity:1;fill-rule:nonzero;stroke:none" transform="matrix(1.33333 0 0 -1.33333 550.90733 75.35667)"/>
    <path d="M0 0c-3.103.866-6.216 1.876-9.34 3.031-51.016 18.771-79.128 81.272-79.128 81.272-15.318-15.927-32.533-19.462-32.533-19.462l-21.009.01-1.794 10.432s19.092 38.08 8.948 92.117c-10.154 54.048-63.799 81.293-63.799 81.293s35.172-1 71.572-60.46C-90.674 128.764-73.355 79.345-48.44 40.275-35.513 20.009-15.885 7.422 0 0" style="fill:#111211;fill-opacity:1;fill-rule:nonzero;stroke:none" transform="matrix(1.33333 0 0 -1.33333 1206.3835 421.37387)"/>
    <path d="M0 0s32.685-28.615 41.748-83.173Z" style="fill:#111211;fill-opacity:1;fill-rule:nonzero;stroke:none" transform="matrix(1.33333 0 0 -1.33333 1059.1821 127.88213)"/>
    <path d="M0 0c17.678-25.82 49.421-34.83 70.9-20.124 21.478 14.706 24.559 47.558 6.881 73.378-17.679 25.82-49.422 34.83-70.9 20.124C-14.598 58.673-17.678 25.82 0 0" style="fill:#111211;fill-opacity:1;fill-rule:nonzero;stroke:none" transform="matrix(1.33333 0 0 -1.33333 868.70973 229.64333)"/>
    <path d="M0 0c0-4.71 6.881-8.529 15.368-8.529 8.488 0 15.368 3.819 15.368 8.529s-6.88 8.529-15.368 8.529C6.881 8.529 0 4.71 0 0" style="fill:#fdfdfd;fill-opacity:1;fill-rule:nonzero;stroke:none" transform="matrix(1.33333 0 0 -1.33333 886.06027 156.8524)"/>
    <path d="M0 0c-1.434-9.314 9.056-18.659 23.43-20.872 14.375-2.213 27.19 3.544 28.624 12.859 1.433 9.314-9.057 18.658-23.431 20.871S1.434 9.314 0 0" style="fill:#d9843f;fill-opacity:1;fill-rule:nonzero;stroke:none" transform="matrix(1.33333 0 0 -1.33333 814.57533 75.35667)"/>
    <path d="M0 0s-61.658-50.531-170.656-29.634C-279.653-8.737-329.3 53.313-346.265 115.015c-16.965 61.701 5.702 172.224 106.026 257.958 100.324 85.733 211.179 101.132 301.158 86.196 89.98-14.937 208.605-79.19 264.937-196.385 56.332-117.194 9.98-206.506-57.392-255.345S92.81-54.45 0 0" style="fill:#d6833e;fill-opacity:1;fill-rule:nonzero;stroke:none" transform="matrix(1.33333 0 0 -1.33333 682.57467 789.33133)"/>
    <path d="M0 0s-33.581 25.874-18.717 99.092C-3.854 172.309 83.127 268.648 264.795 270.85c181.667 2.202 257.638-142.582 258.188-193.779.551-51.197-23.121-74.869-23.121-74.869S487.063-74.12 371.043-120.561s-229.272-8.967-277.311 16.16C45.692-79.273 12.111-36.884 0 0" style="fill:#141515;fill-opacity:1;fill-rule:nonzero;stroke:none" transform="matrix(1.33333 0 0 -1.33333 349.20907 570.46773)"/>
    <path d="M0 0s19.959-11.478 36.436-10.642c16.477.835 24.173 7.954 23.406 17.614-.768 9.66-21.259 35.775-8.031 65.358 13.227 29.582 52.911 45.571 86.934 29.817 34.022-15.753 39.003-46.958 36.414-67.492-2.589-20.535-25.544-47.014-73.428-53.361C53.848-25.053 17.292-14.135 0 0" style="fill:#090b0b;fill-opacity:1;fill-rule:nonzero;stroke:none" transform="matrix(1.33333 0 0 -1.33333 350.83627 575.1796)"/>
    <path d="M0 0s-19.959-11.478-36.436-10.642c-16.477.835-24.173 7.954-23.406 17.614.768 9.66 21.259 35.775 8.031 65.358-13.227 29.582-52.911 45.571-86.934 29.817-34.022-15.753-39.003-46.958-36.414-67.492 2.589-20.535 25.544-47.014 73.428-53.361C-53.848-25.053-17.292-14.135 0 0" style="fill:#090b0b;fill-opacity:1;fill-rule:nonzero;stroke:none" transform="matrix(1.33333 0 0 -1.33333 1013.8005 575.1796)"/>
    <path d="M0 0c2.889-13.02-25.373-30.366-63.125-38.743-37.752-8.376-70.698-4.612-73.587 8.409-2.889 13.02 25.373 30.366 63.125 38.742C-35.835 16.785-2.889 13.02 0 0" style="fill:#fdfdfd;fill-opacity:1;fill-rule:nonzero;stroke:none" transform="matrix(1.33333 0 0 -1.33333 664.29627 268.49133)"/>
    <path d="M0 0c-2.666.108-4.789 2.274-4.802 4.942-.138 27.716-.684 179.896 3.996 179.536C3.86 184.119 5.092 33.31 5.283 4.992 5.302 2.164 2.967-.104.14-.005.093-.004.047-.002 0 0" style="fill:#090b0b;fill-opacity:1;fill-rule:nonzero;stroke:none" transform="matrix(1.33333 0 0 -1.33333 682.1088 792.11867)"/>
  </g>
</svg>
